<?xml version="1.0" encoding="UTF-8" standalone="yes"?>
<!DOCTYPE svg PUBLIC "-//W3C//DTD SVG 1.0//EN" "http://www.w3.org/TR/2001/REC-SVG-20010904/DTD/svg10.dtd">
<svg height="1000" width="1000" xmlns="http://www.w3.org/2000/svg" xmlns:svg="http://www.w3.org/2000/svg" xmlns:xlink="http://www.w3.org/1999/xlink">
	<g fill="orange" transform="rotate(0 400,400)">
		<ellipse cx="400" cy="102.876110196153" fill-opacity="0.5" rx="18.8495559215388" ry="47.1238898038469" />
	</g>
	<text font-size="12" text-anchor="start" transform="rotate(-90, 400, 55.7522203923062)" x="400" y="55.7522203923062">Gene1</text>
	<g transform="rotate(0 400,400)">
		<text font-size="12" text-anchor="middle" x="400" y="102.876110196153">98</text>
	</g>
	<g fill="orange" transform="rotate(7.2 400,400)">
		<ellipse cx="400" cy="102.876110196153" fill-opacity="0.5" rx="18.8495559215388" ry="47.1238898038469" />
	</g>
	<text font-size="12" text-anchor="start" transform="rotate(-82.8, 443.145687365564, 58.4667169563407)" x="443.145687365564" y="58.4667169563407">Gene2</text>
	<g transform="rotate(7.2 400,400)">
		<text font-size="12" text-anchor="middle" x="400" y="102.876110196153">14</text>
	</g>
	<g fill="orange" transform="rotate(14.4 400,400)">
		<ellipse cx="400" cy="102.876110196153" fill-opacity="0.5" rx="18.8495559215388" ry="47.1238898038469" />
	</g>
	<text font-size="12" text-anchor="start" transform="rotate(-75.6, 485.610941467389, 66.5673974160676)" x="485.610941467389" y="66.5673974160676">Gene3</text>
	<g transform="rotate(14.4 400,400)">
		<text font-size="12" text-anchor="middle" x="400" y="102.876110196153">32</text>
	</g>
	<g fill="orange" transform="rotate(21.6 400,400)">
		<ellipse cx="400" cy="102.876110196153" fill-opacity="0.5" rx="18.8495559215388" ry="47.1238898038469" />
	</g>
	<text font-size="12" text-anchor="start" transform="rotate(-68.4, 526.726059880776, 79.9265092015252)" x="526.726059880776" y="79.9265092015252">Gene4</text>
	<g transform="rotate(21.6 400,400)">
		<text font-size="12" text-anchor="middle" x="400" y="102.876110196153">28</text>
	</g>
	<g fill="orange" transform="rotate(28.8 400,400)">
		<ellipse cx="400" cy="102.876110196153" fill-opacity="0.5" rx="18.8495559215388" ry="47.1238898038469" />
	</g>
	<text font-size="12" text-anchor="start" transform="rotate(-61.2, 565.842632627364, 98.3333711395102)" x="565.842632627364" y="98.3333711395102">Gene5</text>
	<g transform="rotate(28.8 400,400)">
		<text font-size="12" text-anchor="middle" x="400" y="102.876110196153">100</text>
	</g>
	<g fill="orange" transform="rotate(36 400,400)">
		<ellipse cx="400" cy="102.876110196153" fill-opacity="0.5" rx="18.8495559215388" ry="47.1238898038469" />
	</g>
	<text font-size="12" text-anchor="start" transform="rotate(-54, 602.343767987832, 121.497696021534)" x="602.343767987832" y="121.497696021534">Gene6</text>
	<g transform="rotate(36 400,400)">
		<text font-size="12" text-anchor="middle" x="400" y="102.876110196153">66</text>
	</g>
	<g fill="orange" transform="rotate(43.2 400,400)">
		<ellipse cx="400" cy="102.876110196153" fill-opacity="0.5" rx="18.8495559215388" ry="47.1238898038469" />
	</g>
	<text font-size="12" text-anchor="start" transform="rotate(-46.8, 635.653821252824, 149.054168606511)" x="635.653821252824" y="149.054168606511">Gene7</text>
	<g transform="rotate(43.2 400,400)">
		<text font-size="12" text-anchor="middle" x="400" y="102.876110196153">28</text>
	</g>
	<g fill="orange" transform="rotate(50.4 400,400)">
		<ellipse cx="400" cy="102.876110196153" fill-opacity="0.5" rx="18.8495559215388" ry="47.1238898038469" />
	</g>
	<text font-size="12" text-anchor="start" transform="rotate(-39.6, 665.247472983889, 180.568206860336)" x="665.247472983889" y="180.568206860336">Gene8</text>
	<g transform="rotate(50.4 400,400)">
		<text font-size="12" text-anchor="middle" x="400" y="102.876110196153">48</text>
	</g>
	<g fill="orange" transform="rotate(57.6 400,400)">
		<ellipse cx="400" cy="102.876110196153" fill-opacity="0.5" rx="18.8495559215388" ry="47.1238898038469" />
	</g>
	<text font-size="12" text-anchor="start" transform="rotate(-32.4, 690.658013614839, 215.542815574173)" x="690.658013614839" y="215.542815574173">Gene9</text>
	<g transform="rotate(57.6 400,400)">
		<text font-size="12" text-anchor="middle" x="400" y="102.876110196153">95</text>
	</g>
	<g fill="orange" transform="rotate(64.8 400,400)">
		<ellipse cx="400" cy="102.876110196153" fill-opacity="0.5" rx="18.8495559215388" ry="47.1238898038469" />
	</g>
	<text font-size="12" text-anchor="start" transform="rotate(-25.2, 711.484703740401, 253.426424275787)" x="711.484703740401" y="253.426424275787">Gene10</text>
	<g transform="rotate(64.8 400,400)">
		<text font-size="12" text-anchor="middle" x="400" y="102.876110196153">76</text>
	</g>
	<g fill="orange" transform="rotate(72 400,400)">
		<ellipse cx="400" cy="102.876110196153" fill-opacity="0.5" rx="18.8495559215388" ry="47.1238898038469" />
	</g>
	<text font-size="12" text-anchor="start" transform="rotate(-18, 727.399094016035, 293.621585825381)" x="727.399094016035" y="293.621585825381">Gene11</text>
	<g transform="rotate(72 400,400)">
		<text font-size="12" text-anchor="middle" x="400" y="102.876110196153">82</text>
	</g>
	<g fill="orange" transform="rotate(79.2 400,400)">
		<ellipse cx="400" cy="102.876110196153" fill-opacity="0.5" rx="18.8495559215388" ry="47.1238898038469" />
	</g>
	<text font-size="12" text-anchor="start" transform="rotate(-10.8, 738.150205000297, 335.494398513894)" x="738.150205000297" y="335.494398513894">Gene12</text>
	<g transform="rotate(79.2 400,400)">
		<text font-size="12" text-anchor="middle" x="400" y="102.876110196153">66</text>
	</g>
	<g fill="orange" transform="rotate(86.4 400,400)">
		<ellipse cx="400" cy="102.876110196153" fill-opacity="0.5" rx="18.8495559215388" ry="47.1238898038469" />
	</g>
	<text font-size="12" text-anchor="start" transform="rotate(-3.59999999999999, 743.568485250563, 378.38450307162)" x="743.568485250563" y="378.38450307162">Gene13</text>
	<g transform="rotate(86.4 400,400)">
		<text font-size="12" text-anchor="middle" x="400" y="102.876110196153">70</text>
	</g>
	<g fill="orange" transform="rotate(93.6 400,400)">
		<ellipse cx="400" cy="102.876110196153" fill-opacity="0.5" rx="18.8495559215388" ry="47.1238898038469" />
	</g>
	<text font-size="12" text-anchor="start" transform="rotate(3.60000000000001, 743.568485250563, 421.61549692838)" x="743.568485250563" y="421.61549692838">Gene14</text>
	<g transform="rotate(93.6 400,400)">
		<text font-size="12" text-anchor="middle" x="400" y="102.876110196153">86</text>
	</g>
	<g fill="orange" transform="rotate(100.8 400,400)">
		<ellipse cx="400" cy="102.876110196153" fill-opacity="0.5" rx="18.8495559215388" ry="47.1238898038469" />
	</g>
	<text font-size="12" text-anchor="start" transform="rotate(10.8, 738.150205000297, 464.505601486106)" x="738.150205000297" y="464.505601486106">Gene15</text>
	<g transform="rotate(100.8 400,400)">
		<text font-size="12" text-anchor="middle" x="400" y="102.876110196153">45</text>
	</g>
	<g fill="orange" transform="rotate(108 400,400)">
		<ellipse cx="400" cy="102.876110196153" fill-opacity="0.5" rx="18.8495559215388" ry="47.1238898038469" />
	</g>
	<text font-size="12" text-anchor="start" transform="rotate(18, 727.399094016035, 506.378414174619)" x="727.399094016035" y="506.378414174619">Gene16</text>
	<g transform="rotate(108 400,400)">
		<text font-size="12" text-anchor="middle" x="400" y="102.876110196153">64</text>
	</g>
	<g fill="orange" transform="rotate(115.2 400,400)">
		<ellipse cx="400" cy="102.876110196153" fill-opacity="0.5" rx="18.8495559215388" ry="47.1238898038469" />
	</g>
	<text font-size="12" text-anchor="start" transform="rotate(25.2, 711.484703740401, 546.573575724213)" x="711.484703740401" y="546.573575724213">Gene17</text>
	<g transform="rotate(115.2 400,400)">
		<text font-size="12" text-anchor="middle" x="400" y="102.876110196153">57</text>
	</g>
	<g fill="orange" transform="rotate(122.4 400,400)">
		<ellipse cx="400" cy="102.876110196153" fill-opacity="0.5" rx="18.8495559215388" ry="47.1238898038469" />
	</g>
	<text font-size="12" text-anchor="start" transform="rotate(32.4, 690.658013614839, 584.457184425826)" x="690.658013614839" y="584.457184425826">Gene18</text>
	<g transform="rotate(122.4 400,400)">
		<text font-size="12" text-anchor="middle" x="400" y="102.876110196153">31</text>
	</g>
	<g fill="orange" transform="rotate(129.6 400,400)">
		<ellipse cx="400" cy="102.876110196153" fill-opacity="0.5" rx="18.8495559215388" ry="47.1238898038469" />
	</g>
	<text font-size="12" text-anchor="start" transform="rotate(39.6, 665.247472983889, 619.431793139664)" x="665.247472983889" y="619.431793139664">Gene19</text>
	<g transform="rotate(129.6 400,400)">
		<text font-size="12" text-anchor="middle" x="400" y="102.876110196153">15</text>
	</g>
	<g fill="orange" transform="rotate(136.8 400,400)">
		<ellipse cx="400" cy="102.876110196153" fill-opacity="0.5" rx="18.8495559215388" ry="47.1238898038469" />
	</g>
	<text font-size="12" text-anchor="start" transform="rotate(46.8, 635.653821252824, 650.945831393489)" x="635.653821252824" y="650.945831393489">Gene20</text>
	<g transform="rotate(136.8 400,400)">
		<text font-size="12" text-anchor="middle" x="400" y="102.876110196153">91</text>
	</g>
	<g fill="orange" transform="rotate(144 400,400)">
		<ellipse cx="400" cy="102.876110196153" fill-opacity="0.5" rx="18.8495559215388" ry="47.1238898038469" />
	</g>
	<text font-size="12" text-anchor="start" transform="rotate(54, 602.343767987832, 678.502303978466)" x="602.343767987832" y="678.502303978466">Gene21</text>
	<g transform="rotate(144 400,400)">
		<text font-size="12" text-anchor="middle" x="400" y="102.876110196153">53</text>
	</g>
	<g fill="orange" transform="rotate(151.2 400,400)">
		<ellipse cx="400" cy="102.876110196153" fill-opacity="0.5" rx="18.8495559215388" ry="47.1238898038469" />
	</g>
	<text font-size="12" text-anchor="start" transform="rotate(61.2, 565.842632627364, 701.66662886049)" x="565.842632627364" y="701.66662886049">Gene22</text>
	<g transform="rotate(151.2 400,400)">
		<text font-size="12" text-anchor="middle" x="400" y="102.876110196153">37</text>
	</g>
	<g fill="orange" transform="rotate(158.4 400,400)">
		<ellipse cx="400" cy="102.876110196153" fill-opacity="0.5" rx="18.8495559215388" ry="47.1238898038469" />
	</g>
	<text font-size="12" text-anchor="start" transform="rotate(68.4, 526.726059880776, 720.073490798475)" x="526.726059880776" y="720.073490798475">Gene23</text>
	<g transform="rotate(158.4 400,400)">
		<text font-size="12" text-anchor="middle" x="400" y="102.876110196153">92</text>
	</g>
	<g fill="orange" transform="rotate(165.6 400,400)">
		<ellipse cx="400" cy="102.876110196153" fill-opacity="0.5" rx="18.8495559215388" ry="47.1238898038469" />
	</g>
	<text font-size="12" text-anchor="start" transform="rotate(75.6, 485.610941467389, 733.432602583932)" x="485.610941467389" y="733.432602583932">Gene24</text>
	<g transform="rotate(165.6 400,400)">
		<text font-size="12" text-anchor="middle" x="400" y="102.876110196153">30</text>
	</g>
	<g fill="orange" transform="rotate(172.8 400,400)">
		<ellipse cx="400" cy="102.876110196153" fill-opacity="0.5" rx="18.8495559215388" ry="47.1238898038469" />
	</g>
	<text font-size="12" text-anchor="start" transform="rotate(82.8, 443.145687365564, 741.533283043659)" x="443.145687365564" y="741.533283043659">Gene25</text>
	<g transform="rotate(172.8 400,400)">
		<text font-size="12" text-anchor="middle" x="400" y="102.876110196153">32</text>
	</g>
	<g fill="orange" transform="rotate(180 400,400)">
		<ellipse cx="400" cy="102.876110196153" fill-opacity="0.5" rx="18.8495559215388" ry="47.1238898038469" />
	</g>
	<text font-size="12" text-anchor="start" transform="rotate(90, 400, 744.247779607694)" x="400" y="744.247779607694">Gene26</text>
	<g transform="rotate(180 400,400)">
		<text font-size="12" text-anchor="middle" x="400" y="102.876110196153">48</text>
	</g>
	<g fill="orange" transform="rotate(187.2 400,400)">
		<ellipse cx="400" cy="102.876110196153" fill-opacity="0.5" rx="18.8495559215388" ry="47.1238898038469" />
	</g>
	<text font-size="12" text-anchor="end" transform="rotate(277.2, 356.854312634436, 741.533283043659)" x="356.854312634436" y="741.533283043659">Gene27</text>
	<g transform="rotate(187.2 400,400)">
		<text font-size="12" text-anchor="middle" x="400" y="102.876110196153">72</text>
	</g>
	<g fill="orange" transform="rotate(194.4 400,400)">
		<ellipse cx="400" cy="102.876110196153" fill-opacity="0.5" rx="18.8495559215388" ry="47.1238898038469" />
	</g>
	<text font-size="12" text-anchor="end" transform="rotate(284.4, 314.389058532611, 733.432602583932)" x="314.389058532611" y="733.432602583932">Gene28</text>
	<g transform="rotate(194.4 400,400)">
		<text font-size="12" text-anchor="middle" x="400" y="102.876110196153">69</text>
	</g>
	<g fill="orange" transform="rotate(201.6 400,400)">
		<ellipse cx="400" cy="102.876110196153" fill-opacity="0.5" rx="18.8495559215388" ry="47.1238898038469" />
	</g>
	<text font-size="12" text-anchor="end" transform="rotate(291.6, 273.273940119224, 720.073490798475)" x="273.273940119224" y="720.073490798475">Gene29</text>
	<g transform="rotate(201.6 400,400)">
		<text font-size="12" text-anchor="middle" x="400" y="102.876110196153">51</text>
	</g>
	<g fill="orange" transform="rotate(208.8 400,400)">
		<ellipse cx="400" cy="102.876110196153" fill-opacity="0.5" rx="18.8495559215388" ry="47.1238898038469" />
	</g>
	<text font-size="12" text-anchor="end" transform="rotate(298.8, 234.157367372636, 701.66662886049)" x="234.157367372636" y="701.66662886049">Gene30</text>
	<g transform="rotate(208.8 400,400)">
		<text font-size="12" text-anchor="middle" x="400" y="102.876110196153">23</text>
	</g>
	<g fill="orange" transform="rotate(216 400,400)">
		<ellipse cx="400" cy="102.876110196153" fill-opacity="0.5" rx="18.8495559215388" ry="47.1238898038469" />
	</g>
	<text font-size="12" text-anchor="end" transform="rotate(306, 197.656232012168, 678.502303978466)" x="197.656232012168" y="678.502303978466">Gene31</text>
	<g transform="rotate(216 400,400)">
		<text font-size="12" text-anchor="middle" x="400" y="102.876110196153">99</text>
	</g>
	<g fill="orange" transform="rotate(223.2 400,400)">
		<ellipse cx="400" cy="102.876110196153" fill-opacity="0.5" rx="18.8495559215388" ry="47.1238898038469" />
	</g>
	<text font-size="12" text-anchor="end" transform="rotate(313.2, 164.346178747176, 650.945831393489)" x="164.346178747176" y="650.945831393489">Gene32</text>
	<g transform="rotate(223.2 400,400)">
		<text font-size="12" text-anchor="middle" x="400" y="102.876110196153">10</text>
	</g>
	<g fill="orange" transform="rotate(230.4 400,400)">
		<ellipse cx="400" cy="102.876110196153" fill-opacity="0.5" rx="18.8495559215388" ry="47.1238898038469" />
	</g>
	<text font-size="12" text-anchor="end" transform="rotate(320.4, 134.752527016111, 619.431793139664)" x="134.752527016111" y="619.431793139664">Gene33</text>
	<g transform="rotate(230.4 400,400)">
		<text font-size="12" text-anchor="middle" x="400" y="102.876110196153">11</text>
	</g>
	<g fill="orange" transform="rotate(237.6 400,400)">
		<ellipse cx="400" cy="102.876110196153" fill-opacity="0.5" rx="18.8495559215388" ry="47.1238898038469" />
	</g>
	<text font-size="12" text-anchor="end" transform="rotate(327.6, 109.341986385161, 584.457184425827)" x="109.341986385161" y="584.457184425827">Gene34</text>
	<g transform="rotate(237.6 400,400)">
		<text font-size="12" text-anchor="middle" x="400" y="102.876110196153">22</text>
	</g>
	<g fill="orange" transform="rotate(244.8 400,400)">
		<ellipse cx="400" cy="102.876110196153" fill-opacity="0.5" rx="18.8495559215388" ry="47.1238898038469" />
	</g>
	<text font-size="12" text-anchor="end" transform="rotate(334.8, 88.5152962595986, 546.573575724213)" x="88.5152962595986" y="546.573575724213">Gene35</text>
	<g transform="rotate(244.8 400,400)">
		<text font-size="12" text-anchor="middle" x="400" y="102.876110196153">89</text>
	</g>
	<g fill="orange" transform="rotate(252 400,400)">
		<ellipse cx="400" cy="102.876110196153" fill-opacity="0.5" rx="18.8495559215388" ry="47.1238898038469" />
	</g>
	<text font-size="12" text-anchor="end" transform="rotate(342, 72.600905983965, 506.378414174619)" x="72.600905983965" y="506.378414174619">Gene36</text>
	<g transform="rotate(252 400,400)">
		<text font-size="12" text-anchor="middle" x="400" y="102.876110196153">25</text>
	</g>
	<g fill="orange" transform="rotate(259.2 400,400)">
		<ellipse cx="400" cy="102.876110196153" fill-opacity="0.5" rx="18.8495559215388" ry="47.1238898038469" />
	</g>
	<text font-size="12" text-anchor="end" transform="rotate(349.2, 61.849794999703, 464.505601486107)" x="61.849794999703" y="464.505601486107">Gene37</text>
	<g transform="rotate(259.2 400,400)">
		<text font-size="12" text-anchor="middle" x="400" y="102.876110196153">10</text>
	</g>
	<g fill="orange" transform="rotate(266.4 400,400)">
		<ellipse cx="400" cy="102.876110196153" fill-opacity="0.5" rx="18.8495559215388" ry="47.1238898038469" />
	</g>
	<text font-size="12" text-anchor="end" transform="rotate(356.4, 56.4315147494368, 421.61549692838)" x="56.4315147494368" y="421.61549692838">Gene38</text>
	<g transform="rotate(266.4 400,400)">
		<text font-size="12" text-anchor="middle" x="400" y="102.876110196153">37</text>
	</g>
	<g fill="orange" transform="rotate(273.6 400,400)">
		<ellipse cx="400" cy="102.876110196153" fill-opacity="0.5" rx="18.8495559215388" ry="47.1238898038469" />
	</g>
	<text font-size="12" text-anchor="end" transform="rotate(363.6, 56.4315147494368, 378.38450307162)" x="56.4315147494368" y="378.38450307162">Gene39</text>
	<g transform="rotate(273.6 400,400)">
		<text font-size="12" text-anchor="middle" x="400" y="102.876110196153">54</text>
	</g>
	<g fill="orange" transform="rotate(280.8 400,400)">
		<ellipse cx="400" cy="102.876110196153" fill-opacity="0.5" rx="18.8495559215388" ry="47.1238898038469" />
	</g>
	<text font-size="12" text-anchor="end" transform="rotate(370.8, 61.849794999703, 335.494398513894)" x="61.849794999703" y="335.494398513894">Gene40</text>
	<g transform="rotate(280.8 400,400)">
		<text font-size="12" text-anchor="middle" x="400" y="102.876110196153">71</text>
	</g>
	<g fill="orange" transform="rotate(288 400,400)">
		<ellipse cx="400" cy="102.876110196153" fill-opacity="0.5" rx="18.8495559215388" ry="47.1238898038469" />
	</g>
	<text font-size="12" text-anchor="end" transform="rotate(378, 72.6009059839649, 293.621585825381)" x="72.6009059839649" y="293.621585825381">Gene41</text>
	<g transform="rotate(288 400,400)">
		<text font-size="12" text-anchor="middle" x="400" y="102.876110196153">61</text>
	</g>
	<g fill="orange" transform="rotate(295.2 400,400)">
		<ellipse cx="400" cy="102.876110196153" fill-opacity="0.5" rx="18.8495559215388" ry="47.1238898038469" />
	</g>
	<text font-size="12" text-anchor="end" transform="rotate(385.2, 88.5152962595985, 253.426424275787)" x="88.5152962595985" y="253.426424275787">Gene42</text>
	<g transform="rotate(295.2 400,400)">
		<text font-size="12" text-anchor="middle" x="400" y="102.876110196153">40</text>
	</g>
	<g fill="orange" transform="rotate(302.4 400,400)">
		<ellipse cx="400" cy="102.876110196153" fill-opacity="0.5" rx="18.8495559215388" ry="47.1238898038469" />
	</g>
	<text font-size="12" text-anchor="end" transform="rotate(392.4, 109.341986385161, 215.542815574173)" x="109.341986385161" y="215.542815574173">Gene43</text>
	<g transform="rotate(302.4 400,400)">
		<text font-size="12" text-anchor="middle" x="400" y="102.876110196153">49</text>
	</g>
	<g fill="orange" transform="rotate(309.6 400,400)">
		<ellipse cx="400" cy="102.876110196153" fill-opacity="0.5" rx="18.8495559215388" ry="47.1238898038469" />
	</g>
	<text font-size="12" text-anchor="end" transform="rotate(399.6, 134.752527016111, 180.568206860336)" x="134.752527016111" y="180.568206860336">Gene44</text>
	<g transform="rotate(309.6 400,400)">
		<text font-size="12" text-anchor="middle" x="400" y="102.876110196153">83</text>
	</g>
	<g fill="orange" transform="rotate(316.8 400,400)">
		<ellipse cx="400" cy="102.876110196153" fill-opacity="0.5" rx="18.8495559215388" ry="47.1238898038469" />
	</g>
	<text font-size="12" text-anchor="end" transform="rotate(406.8, 164.346178747176, 149.054168606511)" x="164.346178747176" y="149.054168606511">Gene45</text>
	<g transform="rotate(316.8 400,400)">
		<text font-size="12" text-anchor="middle" x="400" y="102.876110196153">63</text>
	</g>
	<g fill="orange" transform="rotate(324 400,400)">
		<ellipse cx="400" cy="102.876110196153" fill-opacity="0.5" rx="18.8495559215388" ry="47.1238898038469" />
	</g>
	<text font-size="12" text-anchor="end" transform="rotate(414, 197.656232012168, 121.497696021534)" x="197.656232012168" y="121.497696021534">Gene46</text>
	<g transform="rotate(324 400,400)">
		<text font-size="12" text-anchor="middle" x="400" y="102.876110196153">77</text>
	</g>
	<g fill="orange" transform="rotate(331.2 400,400)">
		<ellipse cx="400" cy="102.876110196153" fill-opacity="0.5" rx="18.8495559215388" ry="47.1238898038469" />
	</g>
	<text font-size="12" text-anchor="end" transform="rotate(421.2, 234.157367372636, 98.3333711395102)" x="234.157367372636" y="98.3333711395102">Gene47</text>
	<g transform="rotate(331.2 400,400)">
		<text font-size="12" text-anchor="middle" x="400" y="102.876110196153">90</text>
	</g>
	<g fill="orange" transform="rotate(338.4 400,400)">
		<ellipse cx="400" cy="102.876110196153" fill-opacity="0.5" rx="18.8495559215388" ry="47.1238898038469" />
	</g>
	<text font-size="12" text-anchor="end" transform="rotate(428.4, 273.273940119224, 79.9265092015251)" x="273.273940119224" y="79.9265092015251">Gene48</text>
	<g transform="rotate(338.4 400,400)">
		<text font-size="12" text-anchor="middle" x="400" y="102.876110196153">92</text>
	</g>
	<g fill="orange" transform="rotate(345.6 400,400)">
		<ellipse cx="400" cy="102.876110196153" fill-opacity="0.5" rx="18.8495559215388" ry="47.1238898038469" />
	</g>
	<text font-size="12" text-anchor="end" transform="rotate(435.6, 314.389058532611, 66.5673974160677)" x="314.389058532611" y="66.5673974160677">Gene49</text>
	<g transform="rotate(345.6 400,400)">
		<text font-size="12" text-anchor="middle" x="400" y="102.876110196153">21</text>
	</g>
	<g fill="orange" transform="rotate(352.8 400,400)">
		<ellipse cx="400" cy="102.876110196153" fill-opacity="0.5" rx="18.8495559215388" ry="47.1238898038469" />
	</g>
	<text font-size="12" text-anchor="end" transform="rotate(442.8, 356.854312634436, 58.4667169563407)" x="356.854312634436" y="58.4667169563407">Gene50</text>
	<g transform="rotate(352.8 400,400)">
		<text font-size="12" text-anchor="middle" x="400" y="102.876110196153">13</text>
	</g>
	<circle cx="400" cy="400" fill="orange" fill-opacity="1" r="125" />
	<circle cx="400" cy="400" fill="blue" fill-opacity="0.5" r="250" />
	<text text-anchor="middle" x="400" y="233.333333333333">Dispensable Genome (34590)</text>
	<text text-anchor="middle" x="400" y="400">Core Genome (398)</text>
	<!--
	Generated using the Perl SVG Module V2.84
	by Ronan Oger
	Info: http://www.roitsystems.com/
	-->
</svg>