<?xml version="1.0" encoding="UTF-8" standalone="yes"?>
<!DOCTYPE svg PUBLIC "-//W3C//DTD SVG 1.0//EN" "http://www.w3.org/TR/2001/REC-SVG-20010904/DTD/svg10.dtd">
<svg height="1000" width="1000" xmlns="http://www.w3.org/2000/svg" xmlns:svg="http://www.w3.org/2000/svg" xmlns:xlink="http://www.w3.org/1999/xlink">
	<g fill="orange" transform="rotate(0 500,500)">
		<ellipse cx="500" cy="202.876110196153" fill-opacity="0.5" rx="18.8495559215388" ry="47.1238898038469" />
	</g>
	<text font-size="12" text-anchor="start" transform="rotate(-90, 500, 155.752220392306)" x="500" y="155.752220392306">Gene1</text>
	<g transform="rotate(0 500,500)">
		<text font-size="12" text-anchor="middle" x="500" y="202.876110196153">98</text>
	</g>
	<g fill="orange" transform="rotate(7.2 500,500)">
		<ellipse cx="500" cy="202.876110196153" fill-opacity="0.5" rx="18.8495559215388" ry="47.1238898038469" />
	</g>
	<text font-size="12" text-anchor="start" transform="rotate(-82.8, 543.145687365564, 158.466716956341)" x="543.145687365564" y="158.466716956341">Gene2</text>
	<g transform="rotate(7.2 500,500)">
		<text font-size="12" text-anchor="middle" x="500" y="202.876110196153">14</text>
	</g>
	<g fill="orange" transform="rotate(14.4 500,500)">
		<ellipse cx="500" cy="202.876110196153" fill-opacity="0.5" rx="18.8495559215388" ry="47.1238898038469" />
	</g>
	<text font-size="12" text-anchor="start" transform="rotate(-75.6, 585.610941467389, 166.567397416068)" x="585.610941467389" y="166.567397416068">Gene3</text>
	<g transform="rotate(14.4 500,500)">
		<text font-size="12" text-anchor="middle" x="500" y="202.876110196153">32</text>
	</g>
	<g fill="orange" transform="rotate(21.6 500,500)">
		<ellipse cx="500" cy="202.876110196153" fill-opacity="0.5" rx="18.8495559215388" ry="47.1238898038469" />
	</g>
	<text font-size="12" text-anchor="start" transform="rotate(-68.4, 626.726059880776, 179.926509201525)" x="626.726059880776" y="179.926509201525">Gene4</text>
	<g transform="rotate(21.6 500,500)">
		<text font-size="12" text-anchor="middle" x="500" y="202.876110196153">28</text>
	</g>
	<g fill="orange" transform="rotate(28.8 500,500)">
		<ellipse cx="500" cy="202.876110196153" fill-opacity="0.5" rx="18.8495559215388" ry="47.1238898038469" />
	</g>
	<text font-size="12" text-anchor="start" transform="rotate(-61.2, 665.842632627364, 198.33337113951)" x="665.842632627364" y="198.33337113951">Gene5</text>
	<g transform="rotate(28.8 500,500)">
		<text font-size="12" text-anchor="middle" x="500" y="202.876110196153">100</text>
	</g>
	<g fill="orange" transform="rotate(36 500,500)">
		<ellipse cx="500" cy="202.876110196153" fill-opacity="0.5" rx="18.8495559215388" ry="47.1238898038469" />
	</g>
	<text font-size="12" text-anchor="start" transform="rotate(-54, 702.343767987832, 221.497696021534)" x="702.343767987832" y="221.497696021534">Gene6</text>
	<g transform="rotate(36 500,500)">
		<text font-size="12" text-anchor="middle" x="500" y="202.876110196153">66</text>
	</g>
	<g fill="orange" transform="rotate(43.2 500,500)">
		<ellipse cx="500" cy="202.876110196153" fill-opacity="0.5" rx="18.8495559215388" ry="47.1238898038469" />
	</g>
	<text font-size="12" text-anchor="start" transform="rotate(-46.8, 735.653821252824, 249.054168606511)" x="735.653821252824" y="249.054168606511">Gene7</text>
	<g transform="rotate(43.2 500,500)">
		<text font-size="12" text-anchor="middle" x="500" y="202.876110196153">28</text>
	</g>
	<g fill="orange" transform="rotate(50.4 500,500)">
		<ellipse cx="500" cy="202.876110196153" fill-opacity="0.5" rx="18.8495559215388" ry="47.1238898038469" />
	</g>
	<text font-size="12" text-anchor="start" transform="rotate(-39.6, 765.247472983889, 280.568206860336)" x="765.247472983889" y="280.568206860336">Gene8</text>
	<g transform="rotate(50.4 500,500)">
		<text font-size="12" text-anchor="middle" x="500" y="202.876110196153">48</text>
	</g>
	<g fill="orange" transform="rotate(57.6 500,500)">
		<ellipse cx="500" cy="202.876110196153" fill-opacity="0.5" rx="18.8495559215388" ry="47.1238898038469" />
	</g>
	<text font-size="12" text-anchor="start" transform="rotate(-32.4, 790.658013614839, 315.542815574173)" x="790.658013614839" y="315.542815574173">Gene9</text>
	<g transform="rotate(57.6 500,500)">
		<text font-size="12" text-anchor="middle" x="500" y="202.876110196153">95</text>
	</g>
	<g fill="orange" transform="rotate(64.8 500,500)">
		<ellipse cx="500" cy="202.876110196153" fill-opacity="0.5" rx="18.8495559215388" ry="47.1238898038469" />
	</g>
	<text font-size="12" text-anchor="start" transform="rotate(-25.2, 811.484703740401, 353.426424275787)" x="811.484703740401" y="353.426424275787">Gene10</text>
	<g transform="rotate(64.8 500,500)">
		<text font-size="12" text-anchor="middle" x="500" y="202.876110196153">76</text>
	</g>
	<g fill="orange" transform="rotate(72 500,500)">
		<ellipse cx="500" cy="202.876110196153" fill-opacity="0.5" rx="18.8495559215388" ry="47.1238898038469" />
	</g>
	<text font-size="12" text-anchor="start" transform="rotate(-18, 827.399094016035, 393.621585825381)" x="827.399094016035" y="393.621585825381">Gene11</text>
	<g transform="rotate(72 500,500)">
		<text font-size="12" text-anchor="middle" x="500" y="202.876110196153">82</text>
	</g>
	<g fill="orange" transform="rotate(79.2 500,500)">
		<ellipse cx="500" cy="202.876110196153" fill-opacity="0.5" rx="18.8495559215388" ry="47.1238898038469" />
	</g>
	<text font-size="12" text-anchor="start" transform="rotate(-10.8, 838.150205000297, 435.494398513894)" x="838.150205000297" y="435.494398513894">Gene12</text>
	<g transform="rotate(79.2 500,500)">
		<text font-size="12" text-anchor="middle" x="500" y="202.876110196153">66</text>
	</g>
	<g fill="orange" transform="rotate(86.4 500,500)">
		<ellipse cx="500" cy="202.876110196153" fill-opacity="0.5" rx="18.8495559215388" ry="47.1238898038469" />
	</g>
	<text font-size="12" text-anchor="start" transform="rotate(-3.59999999999999, 843.568485250563, 478.38450307162)" x="843.568485250563" y="478.38450307162">Gene13</text>
	<g transform="rotate(86.4 500,500)">
		<text font-size="12" text-anchor="middle" x="500" y="202.876110196153">70</text>
	</g>
	<g fill="orange" transform="rotate(93.6 500,500)">
		<ellipse cx="500" cy="202.876110196153" fill-opacity="0.5" rx="18.8495559215388" ry="47.1238898038469" />
	</g>
	<text font-size="12" text-anchor="start" transform="rotate(3.60000000000001, 843.568485250563, 521.61549692838)" x="843.568485250563" y="521.61549692838">Gene14</text>
	<g transform="rotate(93.6 500,500)">
		<text font-size="12" text-anchor="middle" x="500" y="202.876110196153">86</text>
	</g>
	<g fill="orange" transform="rotate(100.8 500,500)">
		<ellipse cx="500" cy="202.876110196153" fill-opacity="0.5" rx="18.8495559215388" ry="47.1238898038469" />
	</g>
	<text font-size="12" text-anchor="start" transform="rotate(10.8, 838.150205000297, 564.505601486106)" x="838.150205000297" y="564.505601486106">Gene15</text>
	<g transform="rotate(100.8 500,500)">
		<text font-size="12" text-anchor="middle" x="500" y="202.876110196153">45</text>
	</g>
	<g fill="orange" transform="rotate(108 500,500)">
		<ellipse cx="500" cy="202.876110196153" fill-opacity="0.5" rx="18.8495559215388" ry="47.1238898038469" />
	</g>
	<text font-size="12" text-anchor="start" transform="rotate(18, 827.399094016035, 606.378414174619)" x="827.399094016035" y="606.378414174619">Gene16</text>
	<g transform="rotate(108 500,500)">
		<text font-size="12" text-anchor="middle" x="500" y="202.876110196153">64</text>
	</g>
	<g fill="orange" transform="rotate(115.2 500,500)">
		<ellipse cx="500" cy="202.876110196153" fill-opacity="0.5" rx="18.8495559215388" ry="47.1238898038469" />
	</g>
	<text font-size="12" text-anchor="start" transform="rotate(25.2, 811.484703740401, 646.573575724213)" x="811.484703740401" y="646.573575724213">Gene17</text>
	<g transform="rotate(115.2 500,500)">
		<text font-size="12" text-anchor="middle" x="500" y="202.876110196153">57</text>
	</g>
	<g fill="orange" transform="rotate(122.4 500,500)">
		<ellipse cx="500" cy="202.876110196153" fill-opacity="0.5" rx="18.8495559215388" ry="47.1238898038469" />
	</g>
	<text font-size="12" text-anchor="start" transform="rotate(32.4, 790.658013614839, 684.457184425826)" x="790.658013614839" y="684.457184425826">Gene18</text>
	<g transform="rotate(122.4 500,500)">
		<text font-size="12" text-anchor="middle" x="500" y="202.876110196153">31</text>
	</g>
	<g fill="orange" transform="rotate(129.6 500,500)">
		<ellipse cx="500" cy="202.876110196153" fill-opacity="0.5" rx="18.8495559215388" ry="47.1238898038469" />
	</g>
	<text font-size="12" text-anchor="start" transform="rotate(39.6, 765.247472983889, 719.431793139664)" x="765.247472983889" y="719.431793139664">Gene19</text>
	<g transform="rotate(129.6 500,500)">
		<text font-size="12" text-anchor="middle" x="500" y="202.876110196153">15</text>
	</g>
	<g fill="orange" transform="rotate(136.8 500,500)">
		<ellipse cx="500" cy="202.876110196153" fill-opacity="0.5" rx="18.8495559215388" ry="47.1238898038469" />
	</g>
	<text font-size="12" text-anchor="start" transform="rotate(46.8, 735.653821252824, 750.945831393489)" x="735.653821252824" y="750.945831393489">Gene20</text>
	<g transform="rotate(136.8 500,500)">
		<text font-size="12" text-anchor="middle" x="500" y="202.876110196153">91</text>
	</g>
	<g fill="orange" transform="rotate(144 500,500)">
		<ellipse cx="500" cy="202.876110196153" fill-opacity="0.5" rx="18.8495559215388" ry="47.1238898038469" />
	</g>
	<text font-size="12" text-anchor="start" transform="rotate(54, 702.343767987832, 778.502303978466)" x="702.343767987832" y="778.502303978466">Gene21</text>
	<g transform="rotate(144 500,500)">
		<text font-size="12" text-anchor="middle" x="500" y="202.876110196153">53</text>
	</g>
	<g fill="orange" transform="rotate(151.2 500,500)">
		<ellipse cx="500" cy="202.876110196153" fill-opacity="0.5" rx="18.8495559215388" ry="47.1238898038469" />
	</g>
	<text font-size="12" text-anchor="start" transform="rotate(61.2, 665.842632627364, 801.66662886049)" x="665.842632627364" y="801.66662886049">Gene22</text>
	<g transform="rotate(151.2 500,500)">
		<text font-size="12" text-anchor="middle" x="500" y="202.876110196153">37</text>
	</g>
	<g fill="orange" transform="rotate(158.4 500,500)">
		<ellipse cx="500" cy="202.876110196153" fill-opacity="0.5" rx="18.8495559215388" ry="47.1238898038469" />
	</g>
	<text font-size="12" text-anchor="start" transform="rotate(68.4, 626.726059880776, 820.073490798475)" x="626.726059880776" y="820.073490798475">Gene23</text>
	<g transform="rotate(158.4 500,500)">
		<text font-size="12" text-anchor="middle" x="500" y="202.876110196153">92</text>
	</g>
	<g fill="orange" transform="rotate(165.6 500,500)">
		<ellipse cx="500" cy="202.876110196153" fill-opacity="0.5" rx="18.8495559215388" ry="47.1238898038469" />
	</g>
	<text font-size="12" text-anchor="start" transform="rotate(75.6, 585.610941467389, 833.432602583932)" x="585.610941467389" y="833.432602583932">Gene24</text>
	<g transform="rotate(165.6 500,500)">
		<text font-size="12" text-anchor="middle" x="500" y="202.876110196153">30</text>
	</g>
	<g fill="orange" transform="rotate(172.8 500,500)">
		<ellipse cx="500" cy="202.876110196153" fill-opacity="0.5" rx="18.8495559215388" ry="47.1238898038469" />
	</g>
	<text font-size="12" text-anchor="start" transform="rotate(82.8, 543.145687365564, 841.533283043659)" x="543.145687365564" y="841.533283043659">Gene25</text>
	<g transform="rotate(172.8 500,500)">
		<text font-size="12" text-anchor="middle" x="500" y="202.876110196153">32</text>
	</g>
	<g fill="orange" transform="rotate(180 500,500)">
		<ellipse cx="500" cy="202.876110196153" fill-opacity="0.5" rx="18.8495559215388" ry="47.1238898038469" />
	</g>
	<text font-size="12" text-anchor="start" transform="rotate(90, 500, 844.247779607694)" x="500" y="844.247779607694">Gene26</text>
	<g transform="rotate(180 500,500)">
		<text font-size="12" text-anchor="middle" x="500" y="202.876110196153">48</text>
	</g>
	<g fill="orange" transform="rotate(187.2 500,500)">
		<ellipse cx="500" cy="202.876110196153" fill-opacity="0.5" rx="18.8495559215388" ry="47.1238898038469" />
	</g>
	<text font-size="12" text-anchor="end" transform="rotate(277.2, 456.854312634436, 841.533283043659)" x="456.854312634436" y="841.533283043659">Gene27</text>
	<g transform="rotate(187.2 500,500)">
		<text font-size="12" text-anchor="middle" x="500" y="202.876110196153">72</text>
	</g>
	<g fill="orange" transform="rotate(194.4 500,500)">
		<ellipse cx="500" cy="202.876110196153" fill-opacity="0.5" rx="18.8495559215388" ry="47.1238898038469" />
	</g>
	<text font-size="12" text-anchor="end" transform="rotate(284.4, 414.389058532611, 833.432602583932)" x="414.389058532611" y="833.432602583932">Gene28</text>
	<g transform="rotate(194.4 500,500)">
		<text font-size="12" text-anchor="middle" x="500" y="202.876110196153">69</text>
	</g>
	<g fill="orange" transform="rotate(201.6 500,500)">
		<ellipse cx="500" cy="202.876110196153" fill-opacity="0.5" rx="18.8495559215388" ry="47.1238898038469" />
	</g>
	<text font-size="12" text-anchor="end" transform="rotate(291.6, 373.273940119224, 820.073490798475)" x="373.273940119224" y="820.073490798475">Gene29</text>
	<g transform="rotate(201.6 500,500)">
		<text font-size="12" text-anchor="middle" x="500" y="202.876110196153">51</text>
	</g>
	<g fill="orange" transform="rotate(208.8 500,500)">
		<ellipse cx="500" cy="202.876110196153" fill-opacity="0.5" rx="18.8495559215388" ry="47.1238898038469" />
	</g>
	<text font-size="12" text-anchor="end" transform="rotate(298.8, 334.157367372636, 801.66662886049)" x="334.157367372636" y="801.66662886049">Gene30</text>
	<g transform="rotate(208.8 500,500)">
		<text font-size="12" text-anchor="middle" x="500" y="202.876110196153">23</text>
	</g>
	<g fill="orange" transform="rotate(216 500,500)">
		<ellipse cx="500" cy="202.876110196153" fill-opacity="0.5" rx="18.8495559215388" ry="47.1238898038469" />
	</g>
	<text font-size="12" text-anchor="end" transform="rotate(306, 297.656232012168, 778.502303978466)" x="297.656232012168" y="778.502303978466">Gene31</text>
	<g transform="rotate(216 500,500)">
		<text font-size="12" text-anchor="middle" x="500" y="202.876110196153">99</text>
	</g>
	<g fill="orange" transform="rotate(223.2 500,500)">
		<ellipse cx="500" cy="202.876110196153" fill-opacity="0.5" rx="18.8495559215388" ry="47.1238898038469" />
	</g>
	<text font-size="12" text-anchor="end" transform="rotate(313.2, 264.346178747176, 750.945831393489)" x="264.346178747176" y="750.945831393489">Gene32</text>
	<g transform="rotate(223.2 500,500)">
		<text font-size="12" text-anchor="middle" x="500" y="202.876110196153">10</text>
	</g>
	<g fill="orange" transform="rotate(230.4 500,500)">
		<ellipse cx="500" cy="202.876110196153" fill-opacity="0.5" rx="18.8495559215388" ry="47.1238898038469" />
	</g>
	<text font-size="12" text-anchor="end" transform="rotate(320.4, 234.752527016111, 719.431793139664)" x="234.752527016111" y="719.431793139664">Gene33</text>
	<g transform="rotate(230.4 500,500)">
		<text font-size="12" text-anchor="middle" x="500" y="202.876110196153">11</text>
	</g>
	<g fill="orange" transform="rotate(237.6 500,500)">
		<ellipse cx="500" cy="202.876110196153" fill-opacity="0.5" rx="18.8495559215388" ry="47.1238898038469" />
	</g>
	<text font-size="12" text-anchor="end" transform="rotate(327.6, 209.341986385161, 684.457184425827)" x="209.341986385161" y="684.457184425827">Gene34</text>
	<g transform="rotate(237.6 500,500)">
		<text font-size="12" text-anchor="middle" x="500" y="202.876110196153">22</text>
	</g>
	<g fill="orange" transform="rotate(244.8 500,500)">
		<ellipse cx="500" cy="202.876110196153" fill-opacity="0.5" rx="18.8495559215388" ry="47.1238898038469" />
	</g>
	<text font-size="12" text-anchor="end" transform="rotate(334.8, 188.515296259599, 646.573575724213)" x="188.515296259599" y="646.573575724213">Gene35</text>
	<g transform="rotate(244.8 500,500)">
		<text font-size="12" text-anchor="middle" x="500" y="202.876110196153">89</text>
	</g>
	<g fill="orange" transform="rotate(252 500,500)">
		<ellipse cx="500" cy="202.876110196153" fill-opacity="0.5" rx="18.8495559215388" ry="47.1238898038469" />
	</g>
	<text font-size="12" text-anchor="end" transform="rotate(342, 172.600905983965, 606.378414174619)" x="172.600905983965" y="606.378414174619">Gene36</text>
	<g transform="rotate(252 500,500)">
		<text font-size="12" text-anchor="middle" x="500" y="202.876110196153">25</text>
	</g>
	<g fill="orange" transform="rotate(259.2 500,500)">
		<ellipse cx="500" cy="202.876110196153" fill-opacity="0.5" rx="18.8495559215388" ry="47.1238898038469" />
	</g>
	<text font-size="12" text-anchor="end" transform="rotate(349.2, 161.849794999703, 564.505601486107)" x="161.849794999703" y="564.505601486107">Gene37</text>
	<g transform="rotate(259.2 500,500)">
		<text font-size="12" text-anchor="middle" x="500" y="202.876110196153">10</text>
	</g>
	<g fill="orange" transform="rotate(266.4 500,500)">
		<ellipse cx="500" cy="202.876110196153" fill-opacity="0.5" rx="18.8495559215388" ry="47.1238898038469" />
	</g>
	<text font-size="12" text-anchor="end" transform="rotate(356.4, 156.431514749437, 521.61549692838)" x="156.431514749437" y="521.61549692838">Gene38</text>
	<g transform="rotate(266.4 500,500)">
		<text font-size="12" text-anchor="middle" x="500" y="202.876110196153">37</text>
	</g>
	<g fill="orange" transform="rotate(273.6 500,500)">
		<ellipse cx="500" cy="202.876110196153" fill-opacity="0.5" rx="18.8495559215388" ry="47.1238898038469" />
	</g>
	<text font-size="12" text-anchor="end" transform="rotate(363.6, 156.431514749437, 478.38450307162)" x="156.431514749437" y="478.38450307162">Gene39</text>
	<g transform="rotate(273.6 500,500)">
		<text font-size="12" text-anchor="middle" x="500" y="202.876110196153">54</text>
	</g>
	<g fill="orange" transform="rotate(280.8 500,500)">
		<ellipse cx="500" cy="202.876110196153" fill-opacity="0.5" rx="18.8495559215388" ry="47.1238898038469" />
	</g>
	<text font-size="12" text-anchor="end" transform="rotate(370.8, 161.849794999703, 435.494398513894)" x="161.849794999703" y="435.494398513894">Gene40</text>
	<g transform="rotate(280.8 500,500)">
		<text font-size="12" text-anchor="middle" x="500" y="202.876110196153">71</text>
	</g>
	<g fill="orange" transform="rotate(288 500,500)">
		<ellipse cx="500" cy="202.876110196153" fill-opacity="0.5" rx="18.8495559215388" ry="47.1238898038469" />
	</g>
	<text font-size="12" text-anchor="end" transform="rotate(378, 172.600905983965, 393.621585825381)" x="172.600905983965" y="393.621585825381">Gene41</text>
	<g transform="rotate(288 500,500)">
		<text font-size="12" text-anchor="middle" x="500" y="202.876110196153">61</text>
	</g>
	<g fill="orange" transform="rotate(295.2 500,500)">
		<ellipse cx="500" cy="202.876110196153" fill-opacity="0.5" rx="18.8495559215388" ry="47.1238898038469" />
	</g>
	<text font-size="12" text-anchor="end" transform="rotate(385.2, 188.515296259599, 353.426424275787)" x="188.515296259599" y="353.426424275787">Gene42</text>
	<g transform="rotate(295.2 500,500)">
		<text font-size="12" text-anchor="middle" x="500" y="202.876110196153">40</text>
	</g>
	<g fill="orange" transform="rotate(302.4 500,500)">
		<ellipse cx="500" cy="202.876110196153" fill-opacity="0.5" rx="18.8495559215388" ry="47.1238898038469" />
	</g>
	<text font-size="12" text-anchor="end" transform="rotate(392.4, 209.341986385161, 315.542815574173)" x="209.341986385161" y="315.542815574173">Gene43</text>
	<g transform="rotate(302.4 500,500)">
		<text font-size="12" text-anchor="middle" x="500" y="202.876110196153">49</text>
	</g>
	<g fill="orange" transform="rotate(309.6 500,500)">
		<ellipse cx="500" cy="202.876110196153" fill-opacity="0.5" rx="18.8495559215388" ry="47.1238898038469" />
	</g>
	<text font-size="12" text-anchor="end" transform="rotate(399.6, 234.752527016111, 280.568206860336)" x="234.752527016111" y="280.568206860336">Gene44</text>
	<g transform="rotate(309.6 500,500)">
		<text font-size="12" text-anchor="middle" x="500" y="202.876110196153">83</text>
	</g>
	<g fill="orange" transform="rotate(316.8 500,500)">
		<ellipse cx="500" cy="202.876110196153" fill-opacity="0.5" rx="18.8495559215388" ry="47.1238898038469" />
	</g>
	<text font-size="12" text-anchor="end" transform="rotate(406.8, 264.346178747176, 249.054168606511)" x="264.346178747176" y="249.054168606511">Gene45</text>
	<g transform="rotate(316.8 500,500)">
		<text font-size="12" text-anchor="middle" x="500" y="202.876110196153">63</text>
	</g>
	<g fill="orange" transform="rotate(324 500,500)">
		<ellipse cx="500" cy="202.876110196153" fill-opacity="0.5" rx="18.8495559215388" ry="47.1238898038469" />
	</g>
	<text font-size="12" text-anchor="end" transform="rotate(414, 297.656232012168, 221.497696021534)" x="297.656232012168" y="221.497696021534">Gene46</text>
	<g transform="rotate(324 500,500)">
		<text font-size="12" text-anchor="middle" x="500" y="202.876110196153">77</text>
	</g>
	<g fill="orange" transform="rotate(331.2 500,500)">
		<ellipse cx="500" cy="202.876110196153" fill-opacity="0.5" rx="18.8495559215388" ry="47.1238898038469" />
	</g>
	<text font-size="12" text-anchor="end" transform="rotate(421.2, 334.157367372636, 198.33337113951)" x="334.157367372636" y="198.33337113951">Gene47</text>
	<g transform="rotate(331.2 500,500)">
		<text font-size="12" text-anchor="middle" x="500" y="202.876110196153">90</text>
	</g>
	<g fill="orange" transform="rotate(338.4 500,500)">
		<ellipse cx="500" cy="202.876110196153" fill-opacity="0.5" rx="18.8495559215388" ry="47.1238898038469" />
	</g>
	<text font-size="12" text-anchor="end" transform="rotate(428.4, 373.273940119224, 179.926509201525)" x="373.273940119224" y="179.926509201525">Gene48</text>
	<g transform="rotate(338.4 500,500)">
		<text font-size="12" text-anchor="middle" x="500" y="202.876110196153">92</text>
	</g>
	<g fill="orange" transform="rotate(345.6 500,500)">
		<ellipse cx="500" cy="202.876110196153" fill-opacity="0.5" rx="18.8495559215388" ry="47.1238898038469" />
	</g>
	<text font-size="12" text-anchor="end" transform="rotate(435.6, 414.389058532611, 166.567397416068)" x="414.389058532611" y="166.567397416068">Gene49</text>
	<g transform="rotate(345.6 500,500)">
		<text font-size="12" text-anchor="middle" x="500" y="202.876110196153">21</text>
	</g>
	<g fill="orange" transform="rotate(352.8 500,500)">
		<ellipse cx="500" cy="202.876110196153" fill-opacity="0.5" rx="18.8495559215388" ry="47.1238898038469" />
	</g>
	<text font-size="12" text-anchor="end" transform="rotate(442.8, 456.854312634436, 158.466716956341)" x="456.854312634436" y="158.466716956341">Gene50</text>
	<g transform="rotate(352.8 500,500)">
		<text font-size="12" text-anchor="middle" x="500" y="202.876110196153">13</text>
	</g>
	<circle cx="500" cy="500" fill="orange" fill-opacity="1" r="125" />
	<circle cx="500" cy="500" fill="blue" fill-opacity="0.5" r="250" />
	<text text-anchor="middle" x="500" y="333.333333333333">Dispensable Genome (34590)</text>
	<text text-anchor="middle" x="500" y="500">Core Genome (398)</text>
	<!--
	Generated using the Perl SVG Module V2.84
	by Ronan Oger
	Info: http://www.roitsystems.com/
	-->
</svg>